<svg width="39" height="23" viewBox="0 0 39 23" fill="none" xmlns="http://www.w3.org/2000/svg">
<path d="M0.9375 14.2188C0.833333 14.1146 0.723958 14.0052 0.609375 13.8906C0.505208 13.776 0.40625 13.651 0.3125 13.5156C0.21875 13.3802 0.140625 13.2396 0.078125 13.0938C0.0260417 12.9479 0 12.7917 0 12.625C0 12.3229 0.09375 12.0521 0.28125 11.8125C0.46875 11.5625 0.697917 11.3021 0.96875 11.0312L5.875 6.15625C6.11458 5.91667 6.35938 5.70312 6.60938 5.51562C6.86979 5.31771 7.15625 5.21875 7.46875 5.21875C7.67708 5.21875 7.89062 5.27604 8.10938 5.39062C8.32812 5.50521 8.5625 5.6875 8.8125 5.9375C9.05208 6.17708 9.21875 6.40104 9.3125 6.60938C9.41667 6.80729 9.46875 7.01042 9.46875 7.21875C9.46875 7.53125 9.375 7.82292 9.1875 8.09375C9.01042 8.35417 8.80208 8.60417 8.5625 8.84375L4.71875 12.6562L8.53125 16.4062C8.78125 16.6562 9 16.9115 9.1875 17.1719C9.375 17.4219 9.46875 17.6979 9.46875 18C9.46875 18.2083 9.41667 18.4219 9.3125 18.6406C9.20833 18.8594 9.02083 19.1042 8.75 19.375C8.51042 19.6146 8.28646 19.7865 8.07812 19.8906C7.88021 19.9844 7.67708 20.0312 7.46875 20.0312C7.16667 20.0312 6.88021 19.9375 6.60938 19.75C6.34896 19.5625 6.09375 19.3438 5.84375 19.0938L0.9375 14.2188ZM16.9688 20.8438C16.8854 21.0208 16.7917 21.2031 16.6875 21.3906C16.5938 21.5677 16.474 21.7344 16.3281 21.8906C16.1927 22.0365 16.0312 22.1562 15.8438 22.25C15.6667 22.3542 15.4583 22.4062 15.2188 22.4062C14.9583 22.4062 14.6667 22.3333 14.3438 22.1875C13.9167 22 13.6094 21.7917 13.4219 21.5625C13.2344 21.3333 13.125 21.0938 13.0938 20.8438C13.0938 20.5417 13.125 20.2812 13.1875 20.0625C13.2604 19.8438 13.3438 19.6146 13.4375 19.375L21.0625 1.53125C21.1354 1.36458 21.2135 1.19271 21.2969 1.01562C21.3802 0.838542 21.4792 0.682292 21.5938 0.546875C21.7083 0.401042 21.8385 0.28125 21.9844 0.1875C22.1406 0.0833333 22.3229 0.0208333 22.5312 0C22.75 0 22.9479 0.015625 23.125 0.046875C23.3125 0.078125 23.5104 0.135417 23.7188 0.21875C24.125 0.395833 24.4167 0.598958 24.5938 0.828125C24.7708 1.04688 24.875 1.28125 24.9062 1.53125C24.9062 1.84375 24.8698 2.11979 24.7969 2.35938C24.7344 2.59896 24.6562 2.82292 24.5625 3.03125L16.9688 20.8438ZM32.3125 19.0938C32.0625 19.3438 31.8021 19.5625 31.5312 19.75C31.2708 19.9375 30.9896 20.0312 30.6875 20.0312C30.4792 20.0312 30.2708 19.9844 30.0625 19.8906C29.8646 19.7865 29.6458 19.6146 29.4062 19.375C29.1354 19.1042 28.9479 18.8594 28.8438 18.6406C28.7396 18.4219 28.6875 18.2083 28.6875 18C28.6875 17.6979 28.7812 17.4219 28.9688 17.1719C29.1562 16.9115 29.375 16.6562 29.625 16.4062L33.4375 12.6562L29.5938 8.84375C29.3542 8.60417 29.1406 8.35417 28.9531 8.09375C28.776 7.82292 28.6875 7.53125 28.6875 7.21875C28.6875 7.01042 28.7344 6.80729 28.8281 6.60938C28.9323 6.40104 29.1042 6.17708 29.3438 5.9375C29.5938 5.6875 29.8281 5.50521 30.0469 5.39062C30.2656 5.27604 30.4792 5.21875 30.6875 5.21875C31 5.21875 31.2812 5.31771 31.5312 5.51562C31.7917 5.70312 32.0417 5.91667 32.2812 6.15625L37.1875 11.0312C37.4583 11.3021 37.6875 11.5625 37.875 11.8125C38.0625 12.0521 38.1562 12.3229 38.1562 12.625C38.1562 12.7917 38.125 12.9479 38.0625 13.0938C38.0104 13.2396 37.9375 13.3802 37.8438 13.5156C37.75 13.651 37.6458 13.776 37.5312 13.8906C37.4271 14.0052 37.3229 14.1146 37.2188 14.2188L32.3125 19.0938Z" fill="#FB2C36"/>
</svg>
